# xmcd
#
# Track frame offsets:
#	150
#	14518
#	26439
#	47727
#	66591
#	84003
#	99276
#	119407
#	138469
#	157463
#	172084
#	193944
#	211380
#	228453
#	240914
#	268798
#
# Disc length: 3590 seconds
#
# Revision: 1
# Processed by: cddbd v1.5.2PL0 Copyright (c) Steve Scherf et al.
# Submitted via: audiograbber 1.83.01
#
DISCID=e40e0410
DTITLE=Various Artist - Karaoke Country Volume 1
DYEAR=1900
DGENRE=
TTITLE0=Alan Jacskon - Country Vol 1 - 01 - When Somebody Loves You
TTITLE1=Alan Jackson - Country Vol 1 - 02 - www.Memory
TTITLE2=Brad Paisley - Country Vol 1 - 03 - He Didn't Have To Be
TTITLE3=Brad Paisley - Country Vol 1 - 04 - Two People Fell In Love
TTITLE4=Brad Paisley - Country Vol 1 - 05 - We Danced
TTITLE5=Brooks and Dunn - Country Vol 1 - 06 - Ain't Nothing 'Bout You
TTITLE6=Brooks and Dunn - Country Vol 1 - 07 - Only In America
TTITLE7=Carolyn Dawn Johnson - Country Vol 1 - 08 - Georgia
TTITLE8=Clinkt Black - Country Vol 1 - 09 - When I Said I Do
TTITLE9=Cyndi Thompson - Country Vol 1 - 10 - I Always Like That Best
TTITLE10=Dixie Chicks - Country Vol 1 - 11 - Cowboy Take Me Away
TTITLE11=Dixie Chicks - Country Vol 1 - 12 - Ready To Run
TTITLE12=Dixie Chicks - Country Vol 1 - 13 - Wide Open Spaces
TTITLE13=Dolly Parton - Country Vol 1 - 14 - I WIll Always Love You
TTITLE14=Faith Hill - Country Vol 1 - 15 - There You'll Be
TTITLE15=Data Track
EXTD=
EXTT0=
EXTT1=
EXTT2=
EXTT3=
EXTT4=
EXTT5=
EXTT6=
EXTT7=
EXTT8=
EXTT9=
EXTT10=
EXTT11=
EXTT12=
EXTT13=
EXTT14=
EXTT15=
PLAYORDER=
